<svg class="main-svg" xmlns="http://www.w3.org/2000/svg" xmlns:xlink="http://www.w3.org/1999/xlink" width="1100" height="700" style="" viewBox="0 60 1100 700"><rect x="0" y="0" width="1100" height="760" style="fill: rgb(255, 255, 255); fill-opacity: 1;"/><defs id="defs-290c17"><g class="clips"><clipPath id="clip290c17xyplot" class="plotclip"><rect width="945" height="505"/></clipPath><clipPath class="axesclip" id="clip290c17x"><rect x="115" y="0" width="945" height="760"/></clipPath><clipPath class="axesclip" id="clip290c17y"><rect x="0" y="155" width="1100" height="505"/></clipPath><clipPath class="axesclip" id="clip290c17xy"><rect x="115" y="155" width="945" height="505"/></clipPath></g><g class="gradients"/><g class="patterns"/></defs><g class="bglayer"/><g class="layer-below"><g class="imagelayer"/><g class="shapelayer"/></g><g class="cartesianlayer"><g class="subplot xy"><g class="layer-subplot"><g class="shapelayer"/><g class="imagelayer"/></g><g class="minor-gridlayer"><g class="x"/><g class="y"/></g><g class="gridlayer"><g class="x"><path class="xgrid crisp" transform="translate(171.63,0)" d="M0,155v505" style="stroke: rgb(235, 240, 248); stroke-opacity: 1; stroke-width: 1px;"/><path class="xgrid crisp" transform="translate(337.98,0)" d="M0,155v505" style="stroke: rgb(235, 240, 248); stroke-opacity: 1; stroke-width: 1px;"/><path class="xgrid crisp" transform="translate(504.33,0)" d="M0,155v505" style="stroke: rgb(235, 240, 248); stroke-opacity: 1; stroke-width: 1px;"/><path class="xgrid crisp" transform="translate(670.68,0)" d="M0,155v505" style="stroke: rgb(235, 240, 248); stroke-opacity: 1; stroke-width: 1px;"/><path class="xgrid crisp" transform="translate(837.03,0)" d="M0,155v505" style="stroke: rgb(235, 240, 248); stroke-opacity: 1; stroke-width: 1px;"/><path class="xgrid crisp" transform="translate(1003.38,0)" d="M0,155v505" style="stroke: rgb(235, 240, 248); stroke-opacity: 1; stroke-width: 1px;"/></g><g class="y"><path class="ygrid crisp" transform="translate(0,594.86)" d="M115,0h945" style="stroke: rgb(220, 220, 220); stroke-opacity: 1; stroke-width: 1px;"/><path class="ygrid crisp" transform="translate(0,529.71)" d="M115,0h945" style="stroke: rgb(220, 220, 220); stroke-opacity: 1; stroke-width: 1px;"/><path class="ygrid crisp" transform="translate(0,464.57)" d="M115,0h945" style="stroke: rgb(220, 220, 220); stroke-opacity: 1; stroke-width: 1px;"/><path class="ygrid crisp" transform="translate(0,399.41999999999996)" d="M115,0h945" style="stroke: rgb(220, 220, 220); stroke-opacity: 1; stroke-width: 1px;"/><path class="ygrid crisp" transform="translate(0,334.28)" d="M115,0h945" style="stroke: rgb(220, 220, 220); stroke-opacity: 1; stroke-width: 1px;"/><path class="ygrid crisp" transform="translate(0,269.13)" d="M115,0h945" style="stroke: rgb(220, 220, 220); stroke-opacity: 1; stroke-width: 1px;"/><path class="ygrid crisp" transform="translate(0,203.99)" d="M115,0h945" style="stroke: rgb(220, 220, 220); stroke-opacity: 1; stroke-width: 1px;"/></g></g><g class="zerolinelayer"><path class="yzl zl crisp" transform="translate(0,660)" d="M115,0h945" style="stroke: rgb(235, 240, 248); stroke-opacity: 1; stroke-width: 2px;"/></g><g class="layer-between"><g class="shapelayer"/><g class="imagelayer"/></g><path class="xlines-below"/><path class="ylines-below"/><g class="overlines-below"/><g class="xaxislayer-below"/><g class="yaxislayer-below"/><g class="overaxes-below"/><g class="overplot"><g class="xy" transform="translate(115,155)" clip-path="url(#clip290c17xyplot)"><g class="scatterlayer mlayer"><g class="trace scatter trace4a971a" style="stroke-miterlimit: 2; opacity: 1;"><g class="fills"/><g class="errorbars"/><g class="lines"><path class="js-line" d="M56.63,377.48L222.98,364.76L389.33,360.72L555.68,360.44L722.03,357.48L888.38,356.14" style="vector-effect: none; fill: none; stroke: rgb(139, 69, 19); stroke-opacity: 1; stroke-width: 5px; opacity: 1;"/></g><g class="points"><path class="point" transform="translate(56.63,377.48)" d="M6.5,0A6.5,6.5 0 1,1 0,-6.5A6.5,6.5 0 0,1 6.5,0Z" style="opacity: 1; stroke-width: 0px; fill: rgb(139, 69, 19); fill-opacity: 1;"/><path class="point" transform="translate(222.98,364.76)" d="M6.5,0A6.5,6.5 0 1,1 0,-6.5A6.5,6.5 0 0,1 6.5,0Z" style="opacity: 1; stroke-width: 0px; fill: rgb(139, 69, 19); fill-opacity: 1;"/><path class="point" transform="translate(389.33,360.72)" d="M6.5,0A6.5,6.5 0 1,1 0,-6.5A6.5,6.5 0 0,1 6.5,0Z" style="opacity: 1; stroke-width: 0px; fill: rgb(139, 69, 19); fill-opacity: 1;"/><path class="point" transform="translate(555.68,360.44)" d="M6.5,0A6.5,6.5 0 1,1 0,-6.5A6.5,6.5 0 0,1 6.5,0Z" style="opacity: 1; stroke-width: 0px; fill: rgb(139, 69, 19); fill-opacity: 1;"/><path class="point" transform="translate(722.03,357.48)" d="M6.5,0A6.5,6.5 0 1,1 0,-6.5A6.5,6.5 0 0,1 6.5,0Z" style="opacity: 1; stroke-width: 0px; fill: rgb(139, 69, 19); fill-opacity: 1;"/><path class="point" transform="translate(888.38,356.14)" d="M6.5,0A6.5,6.5 0 1,1 0,-6.5A6.5,6.5 0 0,1 6.5,0Z" style="opacity: 1; stroke-width: 0px; fill: rgb(139, 69, 19); fill-opacity: 1;"/></g><g class="text"/></g><g class="trace scatter tracef89c37" style="stroke-miterlimit: 2; opacity: 1;"><g class="fills"/><g class="errorbars"/><g class="lines"><path class="js-line" d="M56.63,347.61L389.33,220.28L555.68,176.49L722.03,148.73L888.38,131.5" style="vector-effect: none; fill: none; stroke: rgb(65, 105, 225); stroke-opacity: 1; stroke-width: 5px; opacity: 1;"/></g><g class="points"><path class="point" transform="translate(56.63,347.61)" d="M6.5,0A6.5,6.5 0 1,1 0,-6.5A6.5,6.5 0 0,1 6.5,0Z" style="opacity: 1; stroke-width: 0px; fill: rgb(65, 105, 225); fill-opacity: 1;"/><path class="point" transform="translate(222.98,283.79)" d="M6.5,0A6.5,6.5 0 1,1 0,-6.5A6.5,6.5 0 0,1 6.5,0Z" style="opacity: 1; stroke-width: 0px; fill: rgb(65, 105, 225); fill-opacity: 1;"/><path class="point" transform="translate(389.33,220.28)" d="M6.5,0A6.5,6.5 0 1,1 0,-6.5A6.5,6.5 0 0,1 6.5,0Z" style="opacity: 1; stroke-width: 0px; fill: rgb(65, 105, 225); fill-opacity: 1;"/><path class="point" transform="translate(555.68,176.49)" d="M6.5,0A6.5,6.5 0 1,1 0,-6.5A6.5,6.5 0 0,1 6.5,0Z" style="opacity: 1; stroke-width: 0px; fill: rgb(65, 105, 225); fill-opacity: 1;"/><path class="point" transform="translate(722.03,148.73)" d="M6.5,0A6.5,6.5 0 1,1 0,-6.5A6.5,6.5 0 0,1 6.5,0Z" style="opacity: 1; stroke-width: 0px; fill: rgb(65, 105, 225); fill-opacity: 1;"/><path class="point" transform="translate(888.38,131.5)" d="M6.5,0A6.5,6.5 0 1,1 0,-6.5A6.5,6.5 0 0,1 6.5,0Z" style="opacity: 1; stroke-width: 0px; fill: rgb(65, 105, 225); fill-opacity: 1;"/></g><g class="text"/></g><g class="trace scatter trace56bb80" style="stroke-miterlimit: 2; opacity: 1;"><g class="fills"/><g class="errorbars"/><g class="lines"><path class="js-line" d="M56.63,291.13L222.98,217.47L389.33,134.86L555.68,82.03L722.03,47.15L888.38,33.38" style="vector-effect: none; fill: none; stroke: rgb(220, 20, 60); stroke-opacity: 1; stroke-width: 5px; opacity: 1;"/></g><g class="points"><path class="point" transform="translate(56.63,291.13)" d="M6.5,0A6.5,6.5 0 1,1 0,-6.5A6.5,6.5 0 0,1 6.5,0Z" style="opacity: 1; stroke-width: 0px; fill: rgb(220, 20, 60); fill-opacity: 1;"/><path class="point" transform="translate(222.98,217.47)" d="M6.5,0A6.5,6.5 0 1,1 0,-6.5A6.5,6.5 0 0,1 6.5,0Z" style="opacity: 1; stroke-width: 0px; fill: rgb(220, 20, 60); fill-opacity: 1;"/><path class="point" transform="translate(389.33,134.86)" d="M6.5,0A6.5,6.5 0 1,1 0,-6.5A6.5,6.5 0 0,1 6.5,0Z" style="opacity: 1; stroke-width: 0px; fill: rgb(220, 20, 60); fill-opacity: 1;"/><path class="point" transform="translate(555.68,82.03)" d="M6.5,0A6.5,6.5 0 1,1 0,-6.5A6.5,6.5 0 0,1 6.5,0Z" style="opacity: 1; stroke-width: 0px; fill: rgb(220, 20, 60); fill-opacity: 1;"/><path class="point" transform="translate(722.03,47.15)" d="M6.5,0A6.5,6.5 0 1,1 0,-6.5A6.5,6.5 0 0,1 6.5,0Z" style="opacity: 1; stroke-width: 0px; fill: rgb(220, 20, 60); fill-opacity: 1;"/><path class="point" transform="translate(888.38,33.38)" d="M6.5,0A6.5,6.5 0 1,1 0,-6.5A6.5,6.5 0 0,1 6.5,0Z" style="opacity: 1; stroke-width: 0px; fill: rgb(220, 20, 60); fill-opacity: 1;"/></g><g class="text"/></g><g class="trace scatter trace3daaeb" style="stroke-miterlimit: 2; opacity: 1;"><g class="fills"/><g class="errorbars"/><g class="lines"><path class="js-line" d="M56.63,318.04L222.98,316.48L389.33,320.71L722.03,321.42L888.38,318.92" style="vector-effect: none; fill: none; stroke: rgb(34, 139, 34); stroke-opacity: 1; stroke-width: 5px; opacity: 1;"/></g><g class="points"><path class="point" transform="translate(56.63,318.04)" d="M8.45,0L0,8.45L-8.45,0L0,-8.45Z" style="opacity: 1; stroke-width: 0px; fill: rgb(34, 139, 34); fill-opacity: 1;"/><path class="point" transform="translate(222.98,316.48)" d="M8.45,0L0,8.45L-8.45,0L0,-8.45Z" style="opacity: 1; stroke-width: 0px; fill: rgb(34, 139, 34); fill-opacity: 1;"/><path class="point" transform="translate(389.33,320.71)" d="M8.45,0L0,8.45L-8.45,0L0,-8.45Z" style="opacity: 1; stroke-width: 0px; fill: rgb(34, 139, 34); fill-opacity: 1;"/><path class="point" transform="translate(555.68,321.01)" d="M8.45,0L0,8.45L-8.45,0L0,-8.45Z" style="opacity: 1; stroke-width: 0px; fill: rgb(34, 139, 34); fill-opacity: 1;"/><path class="point" transform="translate(722.03,321.42)" d="M8.45,0L0,8.45L-8.45,0L0,-8.45Z" style="opacity: 1; stroke-width: 0px; fill: rgb(34, 139, 34); fill-opacity: 1;"/><path class="point" transform="translate(888.38,318.92)" d="M8.45,0L0,8.45L-8.45,0L0,-8.45Z" style="opacity: 1; stroke-width: 0px; fill: rgb(34, 139, 34); fill-opacity: 1;"/></g><g class="text"/></g><g class="trace scatter traceb18048" style="stroke-miterlimit: 2; opacity: 1;"><g class="fills"/><g class="errorbars"/><g class="lines"><path class="js-line" d="M56.63,359.61L222.98,296.39L389.33,228.98L555.68,184.12L722.03,152.51L888.38,135.02" style="vector-effect: none; fill: none; stroke: rgb(65, 105, 225); stroke-opacity: 1; stroke-dasharray: 15px, 15px; stroke-width: 5px; opacity: 1;"/></g><g class="points"><path class="point" transform="translate(56.63,359.61)" d="M2.36,-3.24H9.99L3.81,1.24L6.17,8.49L0,4.01L-6.17,8.49L-3.81,1.24L-9.99,-3.24H-2.36L0,-10.5Z" style="opacity: 1; stroke-width: 0px; fill: rgb(65, 105, 225); fill-opacity: 1;"/><path class="point" transform="translate(222.98,296.39)" d="M2.36,-3.24H9.99L3.81,1.24L6.17,8.49L0,4.01L-6.17,8.49L-3.81,1.24L-9.99,-3.24H-2.36L0,-10.5Z" style="opacity: 1; stroke-width: 0px; fill: rgb(65, 105, 225); fill-opacity: 1;"/><path class="point" transform="translate(389.33,228.98)" d="M2.36,-3.24H9.99L3.81,1.24L6.17,8.49L0,4.01L-6.17,8.49L-3.81,1.24L-9.99,-3.24H-2.36L0,-10.5Z" style="opacity: 1; stroke-width: 0px; fill: rgb(65, 105, 225); fill-opacity: 1;"/><path class="point" transform="translate(555.68,184.12)" d="M2.36,-3.24H9.99L3.81,1.24L6.17,8.49L0,4.01L-6.17,8.49L-3.81,1.24L-9.99,-3.24H-2.36L0,-10.5Z" style="opacity: 1; stroke-width: 0px; fill: rgb(65, 105, 225); fill-opacity: 1;"/><path class="point" transform="translate(722.03,152.51)" d="M2.36,-3.24H9.99L3.81,1.24L6.17,8.49L0,4.01L-6.17,8.49L-3.81,1.24L-9.99,-3.24H-2.36L0,-10.5Z" style="opacity: 1; stroke-width: 0px; fill: rgb(65, 105, 225); fill-opacity: 1;"/><path class="point" transform="translate(888.38,135.02)" d="M2.36,-3.24H9.99L3.81,1.24L6.17,8.49L0,4.01L-6.17,8.49L-3.81,1.24L-9.99,-3.24H-2.36L0,-10.5Z" style="opacity: 1; stroke-width: 0px; fill: rgb(65, 105, 225); fill-opacity: 1;"/></g><g class="text"/></g><g class="trace scatter tracebd25fa" style="stroke-miterlimit: 2; opacity: 1;"><g class="fills"/><g class="errorbars"/><g class="lines"><path class="js-line" d="M56.63,311.94L222.98,235.34L389.33,151.57L555.68,94.92L722.03,53L888.38,36.58" style="vector-effect: none; fill: none; stroke: rgb(220, 20, 60); stroke-opacity: 1; stroke-dasharray: 15px, 15px; stroke-width: 5px; opacity: 1;"/></g><g class="points"><path class="point" transform="translate(56.63,311.94)" d="M2.36,-3.24H9.99L3.81,1.24L6.17,8.49L0,4.01L-6.17,8.49L-3.81,1.24L-9.99,-3.24H-2.36L0,-10.5Z" style="opacity: 1; stroke-width: 0px; fill: rgb(220, 20, 60); fill-opacity: 1;"/><path class="point" transform="translate(222.98,235.34)" d="M2.36,-3.24H9.99L3.81,1.24L6.17,8.49L0,4.01L-6.17,8.49L-3.81,1.24L-9.99,-3.24H-2.36L0,-10.5Z" style="opacity: 1; stroke-width: 0px; fill: rgb(220, 20, 60); fill-opacity: 1;"/><path class="point" transform="translate(389.33,151.57)" d="M2.36,-3.24H9.99L3.81,1.24L6.17,8.49L0,4.01L-6.17,8.49L-3.81,1.24L-9.99,-3.24H-2.36L0,-10.5Z" style="opacity: 1; stroke-width: 0px; fill: rgb(220, 20, 60); fill-opacity: 1;"/><path class="point" transform="translate(555.68,94.92)" d="M2.36,-3.24H9.99L3.81,1.24L6.17,8.49L0,4.01L-6.17,8.49L-3.81,1.24L-9.99,-3.24H-2.36L0,-10.5Z" style="opacity: 1; stroke-width: 0px; fill: rgb(220, 20, 60); fill-opacity: 1;"/><path class="point" transform="translate(722.03,53)" d="M2.36,-3.24H9.99L3.81,1.24L6.17,8.49L0,4.01L-6.17,8.49L-3.81,1.24L-9.99,-3.24H-2.36L0,-10.5Z" style="opacity: 1; stroke-width: 0px; fill: rgb(220, 20, 60); fill-opacity: 1;"/><path class="point" transform="translate(888.38,36.58)" d="M2.36,-3.24H9.99L3.81,1.24L6.17,8.49L0,4.01L-6.17,8.49L-3.81,1.24L-9.99,-3.24H-2.36L0,-10.5Z" style="opacity: 1; stroke-width: 0px; fill: rgb(220, 20, 60); fill-opacity: 1;"/></g><g class="text"/></g></g></g></g><g class="zerolinelayer-above"/><path class="xlines-above crisp" d="M0,0" style="fill: none;"/><path class="ylines-above crisp" d="M0,0" style="fill: none;"/><g class="overlines-above"/><g class="xaxislayer-above"><g class="xtick"><text text-anchor="middle" x="0" y="682" transform="translate(171.63,0)" style="font-family: Arial; font-size: 23px; fill: rgb(42, 63, 95); fill-opacity: 1; font-weight: 700; white-space: pre;">32 ms</text></g><g class="xtick"><text text-anchor="middle" x="0" y="682" transform="translate(337.98,0)" style="font-family: Arial; font-size: 23px; fill: rgb(42, 63, 95); fill-opacity: 1; font-weight: 700; white-space: pre;">64 ms</text></g><g class="xtick"><text text-anchor="middle" x="0" y="682" transform="translate(504.33,0)" style="font-family: Arial; font-size: 23px; fill: rgb(42, 63, 95); fill-opacity: 1; font-weight: 700; white-space: pre;">128 ms</text></g><g class="xtick"><text text-anchor="middle" x="0" y="682" transform="translate(670.68,0)" style="font-family: Arial; font-size: 23px; fill: rgb(42, 63, 95); fill-opacity: 1; font-weight: 700; white-space: pre;">256 ms</text></g><g class="xtick"><text text-anchor="middle" x="0" y="682" transform="translate(837.03,0)" style="font-family: Arial; font-size: 23px; fill: rgb(42, 63, 95); fill-opacity: 1; font-weight: 700; white-space: pre;">512 ms</text></g><g class="xtick"><text text-anchor="middle" x="0" y="682" transform="translate(1003.38,0)" style="font-family: Arial; font-size: 23px; fill: rgb(42, 63, 95); fill-opacity: 1; font-weight: 700; white-space: pre;">1024 ms</text></g></g><g class="yaxislayer-above"><g class="ytick"><text text-anchor="end" x="114" y="7.35" transform="translate(0,660)" style="font-family: Arial; font-size: 23px; fill: rgb(42, 63, 95); fill-opacity: 1; font-weight: 700; white-space: pre;">0</text></g><g class="ytick"><text text-anchor="end" x="114" y="7.35" style="font-family: Arial; font-size: 23px; fill: rgb(42, 63, 95); fill-opacity: 1; font-weight: 700; white-space: pre;" transform="translate(0,594.86)">200</text></g><g class="ytick"><text text-anchor="end" x="114" y="7.35" style="font-family: Arial; font-size: 23px; fill: rgb(42, 63, 95); fill-opacity: 1; font-weight: 700; white-space: pre;" transform="translate(0,529.71)">400</text></g><g class="ytick"><text text-anchor="end" x="114" y="7.35" style="font-family: Arial; font-size: 23px; fill: rgb(42, 63, 95); fill-opacity: 1; font-weight: 700; white-space: pre;" transform="translate(0,464.57)">600</text></g><g class="ytick"><text text-anchor="end" x="114" y="7.35" style="font-family: Arial; font-size: 23px; fill: rgb(42, 63, 95); fill-opacity: 1; font-weight: 700; white-space: pre;" transform="translate(0,399.41999999999996)">800</text></g><g class="ytick"><text text-anchor="end" x="114" y="7.35" style="font-family: Arial; font-size: 23px; fill: rgb(42, 63, 95); fill-opacity: 1; font-weight: 700; white-space: pre;" transform="translate(0,334.28)">1000</text></g><g class="ytick"><text text-anchor="end" x="114" y="7.35" style="font-family: Arial; font-size: 23px; fill: rgb(42, 63, 95); fill-opacity: 1; font-weight: 700; white-space: pre;" transform="translate(0,269.13)">1200</text></g><g class="ytick"><text text-anchor="end" x="114" y="7.35" style="font-family: Arial; font-size: 23px; fill: rgb(42, 63, 95); fill-opacity: 1; font-weight: 700; white-space: pre;" transform="translate(0,203.99)">1400</text></g></g><g class="overaxes-above"/></g></g><g class="polarlayer"/><g class="smithlayer"/><g class="ternarylayer"/><g class="geolayer"/><g class="funnelarealayer"/><g class="pielayer"/><g class="iciclelayer"/><g class="treemaplayer"/><g class="sunburstlayer"/><g class="glimages"/><defs id="topdefs-290c17"><g class="clips"/><clipPath id="legend290c17"><rect width="945" height="58" x="0" y="0"/></clipPath></defs><g class="layer-above"><g class="imagelayer"/><g class="shapelayer"/></g><g class="infolayer"><g class="legend" pointer-events="all" transform="translate(115,84.30000000000005)"><rect class="bg" shape-rendering="crispEdges" style="stroke: rgb(68, 68, 68); stroke-opacity: 1; fill: rgb(255, 255, 255); fill-opacity: 1; stroke-width: 0px;" width="945" height="58" x="0" y="0"/><g class="scrollbox" transform="" clip-path="url(#legend290c17)"><g class="groups"><g class="traces" transform="translate(0,16.9)" style="opacity: 1;"><text class="legendtext" text-anchor="start" x="40" y="6.24" style="font-family: Arial; font-size: 18px; fill: rgb(42, 63, 95); fill-opacity: 1; font-weight: 700; white-space: pre;">Silero ONNX (Python)</text><g class="layers" style="opacity: 1;"><g class="legendfill"/><g class="legendlines"><path class="js-line" d="M5,0h30" style="fill: none; stroke: rgb(139, 69, 19); stroke-opacity: 1; stroke-width: 5px;"/></g><g class="legendsymbols"><g class="legendpoints"><path class="scatterpts" transform="translate(20,0)" d="M6.5,0A6.5,6.5 0 1,1 0,-6.5A6.5,6.5 0 0,1 6.5,0Z" style="opacity: 1; stroke-width: 0px; fill: rgb(139, 69, 19); fill-opacity: 1;"/></g></g></g><rect class="legendtoggle" x="0" y="-11.9" width="312.5" height="23.8" style="fill: rgb(0, 0, 0); fill-opacity: 0;"/></g><g class="traces" transform="translate(315,16.9)" style="opacity: 1;"><text class="legendtext" text-anchor="start" x="40" y="6.24" style="font-family: Arial; font-size: 18px; fill: rgb(42, 63, 95); fill-opacity: 1; font-weight: 700; white-space: pre;">Fast ONNX (Python)</text><g class="layers" style="opacity: 1;"><g class="legendfill"/><g class="legendlines"><path class="js-line" d="M5,0h30" style="fill: none; stroke: rgb(65, 105, 225); stroke-opacity: 1; stroke-width: 5px;"/></g><g class="legendsymbols"><g class="legendpoints"><path class="scatterpts" transform="translate(20,0)" d="M6.5,0A6.5,6.5 0 1,1 0,-6.5A6.5,6.5 0 0,1 6.5,0Z" style="opacity: 1; stroke-width: 0px; fill: rgb(65, 105, 225); fill-opacity: 1;"/></g></g></g><rect class="legendtoggle" x="0" y="-11.9" width="312.5" height="23.8" style="fill: rgb(0, 0, 0); fill-opacity: 0;"/></g><g class="traces" transform="translate(630,16.9)" style="opacity: 1;"><text class="legendtext" text-anchor="start" x="40" y="6.24" style="font-family: Arial; font-size: 18px; fill: rgb(42, 63, 95); fill-opacity: 1; font-weight: 700; white-space: pre;">Fast ONNX RFFT (Python)</text><g class="layers" style="opacity: 1;"><g class="legendfill"/><g class="legendlines"><path class="js-line" d="M5,0h30" style="fill: none; stroke: rgb(220, 20, 60); stroke-opacity: 1; stroke-width: 5px;"/></g><g class="legendsymbols"><g class="legendpoints"><path class="scatterpts" transform="translate(20,0)" d="M6.5,0A6.5,6.5 0 1,1 0,-6.5A6.5,6.5 0 0,1 6.5,0Z" style="opacity: 1; stroke-width: 0px; fill: rgb(220, 20, 60); fill-opacity: 1;"/></g></g></g><rect class="legendtoggle" x="0" y="-11.9" width="312.5" height="23.8" style="fill: rgb(0, 0, 0); fill-opacity: 0;"/></g><g class="traces" transform="translate(0,40.7)" style="opacity: 1;"><text class="legendtext" text-anchor="start" x="40" y="6.24" style="font-family: Arial; font-size: 18px; fill: rgb(42, 63, 95); fill-opacity: 1; font-weight: 700; white-space: pre;">Silero ONNX (C++)</text><g class="layers" style="opacity: 1;"><g class="legendfill"/><g class="legendlines"><path class="js-line" d="M5,0h30" style="fill: none; stroke: rgb(34, 139, 34); stroke-opacity: 1; stroke-width: 5px;"/></g><g class="legendsymbols"><g class="legendpoints"><path class="scatterpts" transform="translate(20,0)" d="M8.45,0L0,8.45L-8.45,0L0,-8.45Z" style="opacity: 1; stroke-width: 0px; fill: rgb(34, 139, 34); fill-opacity: 1;"/></g></g></g><rect class="legendtoggle" x="0" y="-11.9" width="312.5" height="23.8" style="fill: rgb(0, 0, 0); fill-opacity: 0;"/></g><g class="traces" transform="translate(315,40.7)" style="opacity: 1;"><text class="legendtext" text-anchor="start" x="40" y="6.24" style="font-family: Arial; font-size: 18px; fill: rgb(42, 63, 95); fill-opacity: 1; font-weight: 700; white-space: pre;">Fast ONNX + Seg (Python)</text><g class="layers" style="opacity: 1;"><g class="legendfill"/><g class="legendlines"><path class="js-line" d="M5,0h30" style="fill: none; stroke: rgb(65, 105, 225); stroke-opacity: 1; stroke-dasharray: 15px, 15px; stroke-width: 5px;"/></g><g class="legendsymbols"><g class="legendpoints"><path class="scatterpts" transform="translate(20,0)" d="M2.36,-3.24H9.99L3.81,1.24L6.17,8.49L0,4.01L-6.17,8.49L-3.81,1.24L-9.99,-3.24H-2.36L0,-10.5Z" style="opacity: 1; stroke-width: 0px; fill: rgb(65, 105, 225); fill-opacity: 1;"/></g></g></g><rect class="legendtoggle" x="0" y="-11.9" width="312.5" height="23.8" style="fill: rgb(0, 0, 0); fill-opacity: 0;"/></g><g class="traces" transform="translate(630,40.7)" style="opacity: 1;"><text class="legendtext" text-anchor="start" x="40" y="6.24" style="font-family: Arial; font-size: 18px; fill: rgb(42, 63, 95); fill-opacity: 1; font-weight: 700; white-space: pre;">Fast ONNX RFFT + Seg (Python)</text><g class="layers" style="opacity: 1;"><g class="legendfill"/><g class="legendlines"><path class="js-line" d="M5,0h30" style="fill: none; stroke: rgb(220, 20, 60); stroke-opacity: 1; stroke-dasharray: 15px, 15px; stroke-width: 5px;"/></g><g class="legendsymbols"><g class="legendpoints"><path class="scatterpts" transform="translate(20,0)" d="M2.36,-3.24H9.99L3.81,1.24L6.17,8.49L0,4.01L-6.17,8.49L-3.81,1.24L-9.99,-3.24H-2.36L0,-10.5Z" style="opacity: 1; stroke-width: 0px; fill: rgb(220, 20, 60); fill-opacity: 1;"/></g></g></g><rect class="legendtoggle" x="0" y="-11.9" width="312.5" height="23.8" style="fill: rgb(0, 0, 0); fill-opacity: 0;"/></g></g></g><rect class="scrollbar" rx="20" ry="3" width="0" height="0" style="fill: rgb(128, 139, 164); fill-opacity: 1;" x="0" y="0"/></g><g class="g-gtitle"/><g class="g-xtitle"><text class="xtitle" x="587.5" y="726" text-anchor="middle" style="opacity: 1; font-family: Arial; font-size: 25px; fill: rgb(42, 63, 95); fill-opacity: 1; font-weight: 700; white-space: pre;">Input audio duration</text></g><g class="g-ytitle"><text class="ytitle" transform="rotate(-90,44.73125,407.5)" x="44.73125" y="407.5" text-anchor="middle" style="opacity: 1; font-family: Arial; font-size: 25px; fill: rgb(42, 63, 95); fill-opacity: 1; font-weight: 700; white-space: pre;">RTFx</text></g></g></svg>